<svg width="35" height="36" viewBox="0 0 35 36" fill="none" xmlns="http://www.w3.org/2000/svg">
<g clip-path="url(#clip0_5_20)">
<path d="M32.7737 16.8097L18.1904 2.22638C18.0082 2.0453 17.7618 1.94366 17.505 1.94366C17.2481 1.94366 17.0017 2.0453 16.8196 2.22638L2.23622 16.8097C2.07694 16.9957 1.99372 17.2349 2.00317 17.4796C2.01262 17.7243 2.11405 17.9564 2.2872 18.1296C2.46035 18.3027 2.69245 18.4041 2.93714 18.4136C3.18182 18.4231 3.42107 18.3398 3.60705 18.1805L17.5001 4.28749L31.3932 18.1903C31.5792 18.3495 31.8184 18.4328 32.0631 18.4233C32.3078 18.4139 32.5399 18.3124 32.713 18.1393C32.8862 17.9661 32.9876 17.734 32.9971 17.4893C33.0065 17.2447 32.9233 17.0054 32.764 16.8194L32.7737 16.8097Z" fill="white"/>
<path d="M27.2221 31.1111H22.361V21.3889H12.6388V31.1111H7.7777V17.5L5.83325 19.4444V31.1111C5.83325 31.6268 6.03811 32.1214 6.40277 32.486C6.76742 32.8507 7.262 33.0556 7.7777 33.0556H14.5833V23.3333H20.4166V33.0556H27.2221C27.7378 33.0556 28.2324 32.8507 28.5971 32.486C28.9617 32.1214 29.1666 31.6268 29.1666 31.1111V19.2111L27.2221 17.2667V31.1111Z" fill="white"/>
</g>
<g clip-path="url(#clip1_5_20)">
<path d="M32.7737 17.8097L18.1904 3.22638C18.0082 3.0453 17.7618 2.94366 17.505 2.94366C17.2481 2.94366 17.0017 3.0453 16.8196 3.22638L2.23622 17.8097C2.07694 17.9957 1.99372 18.2349 2.00317 18.4796C2.01262 18.7243 2.11405 18.9564 2.2872 19.1296C2.46035 19.3027 2.69245 19.4041 2.93714 19.4136C3.18182 19.4231 3.42107 19.3398 3.60705 19.1805L17.5001 5.28749L31.3932 19.1903C31.5792 19.3495 31.8184 19.4328 32.0631 19.4233C32.3078 19.4139 32.5399 19.3124 32.713 19.1393C32.8862 18.9661 32.9876 18.734 32.9971 18.4893C33.0065 18.2447 32.9233 18.0054 32.764 17.8194L32.7737 17.8097Z" fill="#D99BFF"/>
<path d="M27.2221 32.1111H22.361V22.3889H12.6388V32.1111H7.7777V18.5L5.83325 20.4444V32.1111C5.83325 32.6268 6.03811 33.1214 6.40277 33.486C6.76742 33.8507 7.262 34.0556 7.7777 34.0556H14.5833V24.3333H20.4166V34.0556H27.2221C27.7378 34.0556 28.2324 33.8507 28.5971 33.486C28.9617 33.1214 29.1666 32.6268 29.1666 32.1111V20.2111L27.2221 18.2667V32.1111Z" fill="#D99BFF"/>
</g>
<defs>
<clipPath id="clip0_5_20">
<rect width="35" height="35" fill="white"/>
</clipPath>
<clipPath id="clip1_5_20">
<rect width="35" height="35" fill="white" transform="translate(0 1)"/>
</clipPath>
</defs>
</svg>
