<svg width="35" height="36" viewBox="0 0 35 36" fill="none" xmlns="http://www.w3.org/2000/svg">
<path d="M31.4358 10.4956C31.2697 9.8782 30.9443 9.31527 30.4922 8.86316C30.04 8.41106 29.4771 8.08563 28.8597 7.91947C27.1724 7.26759 10.826 6.94822 6.08345 7.9377C5.46596 8.10392 4.90297 8.42946 4.45085 8.8817C3.99874 9.33394 3.67336 9.89703 3.50731 10.5146C2.74533 13.8563 2.68772 21.0809 3.52627 24.4978C3.69243 25.1152 4.01785 25.6781 4.46996 26.1302C4.92207 26.5824 5.485 26.9078 6.10241 27.0739C9.44418 27.8432 25.3313 27.9511 28.8787 27.0739C29.4961 26.9078 30.059 26.5824 30.5111 26.1302C30.9632 25.6781 31.2886 25.1152 31.4548 24.4978C32.2671 20.8571 32.3247 14.0802 31.4358 10.4956Z" stroke="white" stroke-linecap="round" stroke-linejoin="round"/>
<path d="M22.2885 17.4964L14.6709 13.1279V21.8648L22.2885 17.4964Z" stroke="white" stroke-linecap="round" stroke-linejoin="round"/>
<path d="M31.4358 11.4956C31.2697 10.8782 30.9443 10.3153 30.4922 9.86316C30.04 9.41106 29.4771 9.08563 28.8597 8.91947C27.1724 8.26759 10.826 7.94822 6.08345 8.9377C5.46596 9.10392 4.90297 9.42946 4.45085 9.8817C3.99874 10.3339 3.67336 10.897 3.50731 11.5146C2.74533 14.8563 2.68772 22.0809 3.52627 25.4978C3.69243 26.1152 4.01785 26.6781 4.46996 27.1302C4.92207 27.5824 5.485 27.9078 6.10241 28.0739C9.44418 28.8432 25.3313 28.9511 28.8787 28.0739C29.4961 27.9078 30.059 27.5824 30.5111 27.1302C30.9632 26.6781 31.2886 26.1152 31.4548 25.4978C32.2671 21.8571 32.3247 15.0802 31.4358 11.4956Z" stroke="#D99BFF" stroke-linecap="round" stroke-linejoin="round"/>
<path d="M22.2885 18.4964L14.6709 14.1279V22.8648L22.2885 18.4964Z" stroke="#D99BFF" stroke-linecap="round" stroke-linejoin="round"/>
</svg>
