<svg width="35" height="36" viewBox="0 0 35 36" fill="none" xmlns="http://www.w3.org/2000/svg">
<path d="M30.625 10.3906C28.7401 10.3885 26.9331 9.63874 25.6003 8.30594C24.2675 6.97314 23.5178 5.16611 23.5156 3.28125C23.5156 3.13621 23.458 2.99711 23.3554 2.89455C23.2529 2.79199 23.1138 2.73438 22.9688 2.73438H17.5C17.355 2.73438 17.2159 2.79199 17.1133 2.89455C17.0107 2.99711 16.9531 3.13621 16.9531 3.28125V21.3281C16.953 21.9153 16.7954 22.4918 16.4966 22.9973C16.1978 23.5028 15.7688 23.9189 15.2544 24.2021C14.74 24.4853 14.159 24.6253 13.572 24.6074C12.9851 24.5896 12.4137 24.4145 11.9174 24.1005C11.4212 23.7865 11.0183 23.3451 10.7508 22.8224C10.4833 22.2996 10.361 21.7146 10.3967 21.1285C10.4323 20.5424 10.6246 19.9765 10.9535 19.49C11.2824 19.0035 11.7358 18.6142 12.2664 18.3627C12.3599 18.3182 12.4388 18.248 12.494 18.1604C12.5492 18.0728 12.5784 17.9713 12.5781 17.8678V12.0312C12.5782 11.9513 12.5607 11.8723 12.5269 11.7999C12.4931 11.7274 12.4438 11.6633 12.3826 11.6119C12.3213 11.5606 12.2495 11.5233 12.1723 11.5026C12.0951 11.482 12.0143 11.4786 11.9355 11.4926C7.31309 12.3156 3.82812 16.543 3.82812 21.3281C3.82813 23.9389 4.86523 26.4426 6.71129 28.2887C8.55735 30.1348 11.0612 31.1719 13.6719 31.1719C16.2826 31.1719 18.7864 30.1348 20.6325 28.2887C22.4785 26.4426 23.5156 23.9389 23.5156 21.3281V14.9625C25.6559 16.2703 28.1168 16.9593 30.625 16.9531C30.77 16.9531 30.9091 16.8955 31.0117 16.7929C31.1143 16.6904 31.1719 16.5513 31.1719 16.4062V10.9375C31.1719 10.7925 31.1143 10.6534 31.0117 10.5508C30.9091 10.4482 30.77 10.3906 30.625 10.3906ZM30.0781 15.8484C27.6337 15.7476 25.2728 14.9308 23.2887 13.4996C23.2069 13.4406 23.1103 13.4054 23.0097 13.3978C22.9091 13.3902 22.8084 13.4107 22.7187 13.4568C22.629 13.5029 22.5537 13.573 22.5014 13.6592C22.449 13.7454 22.4215 13.8444 22.4219 13.9453V21.3281C22.4219 23.6488 21.5 25.8744 19.8591 27.5153C18.2181 29.1563 15.9925 30.0781 13.6719 30.0781C11.3512 30.0781 9.12563 29.1563 7.48469 27.5153C5.84375 25.8744 4.92188 23.6488 4.92188 21.3281C4.92188 17.2922 7.7 13.7006 11.4844 12.7148V17.5424C10.8192 17.9264 10.2668 18.4788 9.88282 19.1441C9.49883 19.8093 9.29674 20.5639 9.29688 21.332C9.29701 22.1001 9.49937 22.8547 9.8836 23.5198C10.2678 24.1849 10.8204 24.7371 11.4857 25.1209C12.1511 25.5047 12.9057 25.7066 13.6738 25.7062C14.4419 25.7059 15.1964 25.5033 15.8614 25.1189C16.5264 24.7345 17.0785 24.1818 17.4621 23.5164C17.8457 22.8509 18.0474 22.0962 18.0469 21.3281V3.82812H22.4396C22.5751 5.80934 23.4234 7.6745 24.8276 9.0787C26.2318 10.4829 28.0969 11.3312 30.0781 11.4666V15.8484Z" fill="white"/>
<path d="M30.625 11.3906C28.7401 11.3885 26.9331 10.6387 25.6003 9.30594C24.2675 7.97314 23.5178 6.16611 23.5156 4.28125C23.5156 4.13621 23.458 3.99711 23.3554 3.89455C23.2529 3.79199 23.1138 3.73438 22.9688 3.73438H17.5C17.355 3.73438 17.2159 3.79199 17.1133 3.89455C17.0107 3.99711 16.9531 4.13621 16.9531 4.28125V22.3281C16.953 22.9153 16.7954 23.4918 16.4966 23.9973C16.1978 24.5028 15.7688 24.9189 15.2544 25.2021C14.74 25.4853 14.159 25.6253 13.572 25.6074C12.9851 25.5896 12.4137 25.4145 11.9174 25.1005C11.4212 24.7865 11.0183 24.3451 10.7508 23.8224C10.4833 23.2996 10.361 22.7146 10.3967 22.1285C10.4323 21.5424 10.6246 20.9765 10.9535 20.49C11.2824 20.0035 11.7358 19.6142 12.2664 19.3627C12.3599 19.3182 12.4388 19.248 12.494 19.1604C12.5492 19.0728 12.5784 18.9713 12.5781 18.8678V13.0312C12.5782 12.9513 12.5607 12.8723 12.5269 12.7999C12.4931 12.7274 12.4438 12.6633 12.3826 12.6119C12.3213 12.5606 12.2495 12.5233 12.1723 12.5026C12.0951 12.482 12.0143 12.4786 11.9355 12.4926C7.31309 13.3156 3.82812 17.543 3.82812 22.3281C3.82813 24.9389 4.86523 27.4426 6.71129 29.2887C8.55735 31.1348 11.0612 32.1719 13.6719 32.1719C16.2826 32.1719 18.7864 31.1348 20.6325 29.2887C22.4785 27.4426 23.5156 24.9389 23.5156 22.3281V15.9625C25.6559 17.2703 28.1168 17.9593 30.625 17.9531C30.77 17.9531 30.9091 17.8955 31.0117 17.7929C31.1143 17.6904 31.1719 17.5513 31.1719 17.4062V11.9375C31.1719 11.7925 31.1143 11.6534 31.0117 11.5508C30.9091 11.4482 30.77 11.3906 30.625 11.3906ZM30.0781 16.8484C27.6337 16.7476 25.2728 15.9308 23.2887 14.4996C23.2069 14.4406 23.1103 14.4054 23.0097 14.3978C22.9091 14.3902 22.8084 14.4107 22.7187 14.4568C22.629 14.5029 22.5537 14.573 22.5014 14.6592C22.449 14.7454 22.4215 14.8444 22.4219 14.9453V22.3281C22.4219 24.6488 21.5 26.8744 19.8591 28.5153C18.2181 30.1563 15.9925 31.0781 13.6719 31.0781C11.3512 31.0781 9.12563 30.1563 7.48469 28.5153C5.84375 26.8744 4.92188 24.6488 4.92188 22.3281C4.92188 18.2922 7.7 14.7006 11.4844 13.7148V18.5424C10.8192 18.9264 10.2668 19.4788 9.88282 20.1441C9.49883 20.8093 9.29674 21.5639 9.29688 22.332C9.29701 23.1001 9.49937 23.8547 9.8836 24.5198C10.2678 25.1849 10.8204 25.7371 11.4857 26.1209C12.1511 26.5047 12.9057 26.7066 13.6738 26.7062C14.4419 26.7059 15.1964 26.5033 15.8614 26.1189C16.5264 25.7345 17.0785 25.1818 17.4621 24.5164C17.8457 23.8509 18.0474 23.0962 18.0469 22.3281V4.82812H22.4396C22.5751 6.80934 23.4234 8.6745 24.8276 10.0787C26.2318 11.4829 28.0969 12.3312 30.0781 12.4666V16.8484Z" fill="#D99BFF"/>
</svg>
