<svg width="35" height="36" viewBox="0 0 35 36" fill="none" xmlns="http://www.w3.org/2000/svg">
<g clip-path="url(#clip0_5_24)">
<path d="M17.5001 33.8334C15.3552 33.8334 13.2312 33.4109 11.2496 32.5901C9.26793 31.7692 7.46736 30.5661 5.95067 29.0494C4.43398 27.5327 3.23088 25.7322 2.41005 23.7505C1.58922 21.7689 1.16675 19.6449 1.16675 17.5C1.16675 15.3551 1.58922 13.2312 2.41005 11.2495C3.23088 9.26787 4.43398 7.4673 5.95067 5.95061C7.46736 4.43392 9.26793 3.23081 11.2496 2.40999C13.2312 1.58916 15.3552 1.16669 17.5001 1.16669C21.832 1.16669 25.9864 2.88752 29.0495 5.95061C32.1126 9.0137 33.8334 13.1682 33.8334 17.5C33.8334 21.8319 32.1126 25.9863 29.0495 29.0494C25.9864 32.1125 21.832 33.8334 17.5001 33.8334ZM17.5001 33.8334V15.1667C17.5001 13.929 17.9917 12.742 18.8669 11.8669C19.7421 10.9917 20.9291 10.5 22.1667 10.5H23.3334M11.6667 19.8334H23.3334" stroke="white"/>
</g>
<g clip-path="url(#clip1_5_24)">
<path d="M17.5001 34.8334C15.3552 34.8334 13.2312 34.4109 11.2496 33.5901C9.26793 32.7692 7.46736 31.5661 5.95067 30.0494C4.43398 28.5327 3.23088 26.7322 2.41005 24.7505C1.58922 22.7689 1.16675 20.6449 1.16675 18.5C1.16675 16.3551 1.58922 14.2312 2.41005 12.2495C3.23088 10.2679 4.43398 8.4673 5.95067 6.95061C7.46736 5.43392 9.26793 4.23081 11.2496 3.40999C13.2312 2.58916 15.3552 2.16669 17.5001 2.16669C21.832 2.16669 25.9864 3.88752 29.0495 6.95061C32.1126 10.0137 33.8334 14.1682 33.8334 18.5C33.8334 22.8319 32.1126 26.9863 29.0495 30.0494C25.9864 33.1125 21.832 34.8334 17.5001 34.8334ZM17.5001 34.8334V16.1667C17.5001 14.929 17.9917 13.742 18.8669 12.8669C19.7421 11.9917 20.9291 11.5 22.1667 11.5H23.3334M11.6667 20.8334H23.3334" stroke="#D99BFF"/>
</g>
<defs>
<clipPath id="clip0_5_24">
<rect width="35" height="35" fill="white"/>
</clipPath>
<clipPath id="clip1_5_24">
<rect width="35" height="35" fill="white" transform="translate(0 1)"/>
</clipPath>
</defs>
</svg>
