<svg width="35" height="36" viewBox="0 0 35 36" fill="none" xmlns="http://www.w3.org/2000/svg">
<path d="M6.23868 12.53C10.2826 8.49041 14.9945 6.64854 16.7664 8.42333C17.5495 9.20645 17.6239 10.5583 17.1222 12.1742C16.8626 12.9865 17.8864 12.5387 17.8864 12.5387C21.1545 11.1708 24.007 11.0892 25.0468 12.5781C25.601 13.3685 25.547 14.4827 25.0351 15.7719C24.7974 16.3654 25.1051 16.4573 25.5601 16.5929C27.4006 17.1646 29.451 18.5412 29.451 20.9737C29.451 25.0031 23.6468 30.0723 14.9201 30.0723C8.26284 30.0723 1.45972 26.845 1.45972 21.5381C1.45972 18.7644 3.21555 15.556 6.23868 12.53ZM23.9326 20.9037C23.587 17.4169 19.0005 15.0135 13.6908 15.5415C8.38242 16.065 4.35305 19.3185 4.69722 22.804C5.04284 26.2952 9.6293 28.6942 14.9391 28.1706C20.2489 27.6427 24.2739 24.3906 23.9326 20.9037ZM8.98618 21.0554C10.0858 18.8271 12.9412 17.57 15.4699 18.2262C18.0833 18.9015 19.4176 21.3675 18.3516 23.7665C17.2666 26.2208 14.1472 27.529 11.5047 26.6744C8.94972 25.849 7.86909 23.3275 8.98618 21.0554ZM12.9455 21.8983C12.1245 21.5527 11.0628 21.91 10.5539 22.7048C10.0376 23.5025 10.2783 24.4562 11.0949 24.8281C11.9233 25.2029 13.0272 24.8471 13.5391 24.026C14.0437 23.1977 13.7783 22.2512 12.9455 21.8983ZM14.9668 21.0554C14.6518 20.9329 14.258 21.0817 14.0728 21.3937C13.8935 21.7058 13.9941 22.0617 14.3105 22.1915C14.6299 22.3256 15.0412 22.174 15.2264 21.8546C15.4058 21.5337 15.2905 21.175 14.9668 21.0554ZM23.2705 4.26416C24.7293 3.95349 26.2441 4.03196 27.6629 4.49168C29.0818 4.9514 30.3547 5.7762 31.3541 6.88333C32.3543 7.99195 33.0452 9.34418 33.3575 10.8043C33.6698 12.2644 33.5924 13.7809 33.1333 15.2017C33.084 15.3552 33.0048 15.4975 32.9003 15.6203C32.7958 15.7432 32.668 15.8441 32.5243 15.9173C32.3806 15.9905 32.2239 16.0345 32.0631 16.0469C31.9023 16.0592 31.7406 16.0396 31.5874 15.9892C31.2774 15.8883 31.0201 15.6686 30.872 15.3782C30.7238 15.0879 30.6968 14.7506 30.797 14.4404C31.124 13.4313 31.1795 12.3539 30.958 11.3166C30.7364 10.2792 30.2456 9.31849 29.5349 8.53105C28.8241 7.74361 27.9186 7.15721 26.9093 6.83084C25.9 6.50447 24.8226 6.44964 23.7853 6.67187C23.4742 6.72036 23.1564 6.64793 22.897 6.46945C22.6376 6.29097 22.4564 6.01997 22.3905 5.71208C22.3247 5.40419 22.3791 5.08277 22.5428 4.81379C22.7064 4.5448 22.9668 4.3472 23.2705 4.26416ZM24.1835 8.5327C24.8935 8.38109 25.631 8.41907 26.3217 8.64284C27.0125 8.86662 27.6321 9.26829 28.1184 9.80747C28.6047 10.3467 28.9404 11.0044 29.0919 11.7145C29.2434 12.4245 29.2053 13.162 28.9814 13.8527C28.9407 13.9876 28.8736 14.113 28.7837 14.2216C28.6939 14.3302 28.5834 14.4197 28.4585 14.4849C28.3336 14.5501 28.1969 14.5897 28.0565 14.6014C27.9161 14.6131 27.7748 14.5965 27.6408 14.5528C27.5069 14.5091 27.383 14.439 27.2766 14.3467C27.1701 14.2544 27.0831 14.1418 27.0208 14.0154C26.9585 13.8891 26.922 13.7515 26.9136 13.6109C26.9052 13.4703 26.925 13.3293 26.9718 13.1965C27.0829 12.859 27.1027 12.4982 27.0292 12.1506C26.9557 11.803 26.7915 11.4811 26.5533 11.2175C26.3142 10.9546 26.0104 10.7589 25.6721 10.6499C25.3339 10.5409 24.973 10.5224 24.6253 10.5962C24.3517 10.6548 24.066 10.6023 23.8311 10.4503C23.5961 10.2982 23.4312 10.0591 23.3726 9.78541C23.314 9.51177 23.3665 9.22606 23.5186 8.99113C23.6707 8.7562 23.9098 8.5913 24.1835 8.5327Z" fill="white"/>
<path d="M6.23868 13.53C10.2826 9.49041 14.9945 7.64854 16.7664 9.42333C17.5495 10.2065 17.6239 11.5583 17.1222 13.1742C16.8626 13.9865 17.8864 13.5387 17.8864 13.5387C21.1545 12.1708 24.007 12.0892 25.0468 13.5781C25.601 14.3685 25.547 15.4827 25.0351 16.7719C24.7974 17.3654 25.1051 17.4573 25.5601 17.5929C27.4006 18.1646 29.451 19.5412 29.451 21.9737C29.451 26.0031 23.6468 31.0723 14.9201 31.0723C8.26284 31.0723 1.45972 27.845 1.45972 22.5381C1.45972 19.7644 3.21555 16.556 6.23868 13.53ZM23.9326 21.9037C23.587 18.4169 19.0005 16.0135 13.6908 16.5415C8.38242 17.065 4.35305 20.3185 4.69722 23.804C5.04284 27.2952 9.6293 29.6942 14.9391 29.1706C20.2489 28.6427 24.2739 25.3906 23.9326 21.9037ZM8.98618 22.0554C10.0858 19.8271 12.9412 18.57 15.4699 19.2262C18.0833 19.9015 19.4176 22.3675 18.3516 24.7665C17.2666 27.2208 14.1472 28.529 11.5047 27.6744C8.94972 26.849 7.86909 24.3275 8.98618 22.0554ZM12.9455 22.8983C12.1245 22.5527 11.0628 22.91 10.5539 23.7048C10.0376 24.5025 10.2783 25.4562 11.0949 25.8281C11.9233 26.2029 13.0272 25.8471 13.5391 25.026C14.0437 24.1977 13.7783 23.2512 12.9455 22.8983ZM14.9668 22.0554C14.6518 21.9329 14.258 22.0817 14.0728 22.3937C13.8935 22.7058 13.9941 23.0617 14.3105 23.1915C14.6299 23.3256 15.0412 23.174 15.2264 22.8546C15.4058 22.5337 15.2905 22.175 14.9668 22.0554ZM23.2705 5.26416C24.7293 4.95349 26.2441 5.03196 27.6629 5.49168C29.0818 5.9514 30.3547 6.7762 31.3541 7.88333C32.3543 8.99195 33.0452 10.3442 33.3575 11.8043C33.6698 13.2644 33.5924 14.7809 33.1333 16.2017C33.084 16.3552 33.0048 16.4975 32.9003 16.6203C32.7958 16.7432 32.668 16.8441 32.5243 16.9173C32.3806 16.9905 32.2239 17.0345 32.0631 17.0469C31.9023 17.0592 31.7406 17.0396 31.5874 16.9892C31.2774 16.8883 31.0201 16.6686 30.872 16.3782C30.7238 16.0879 30.6968 15.7506 30.797 15.4404C31.124 14.4313 31.1795 13.3539 30.958 12.3166C30.7364 11.2792 30.2456 10.3185 29.5349 9.53105C28.8241 8.74361 27.9186 8.15721 26.9093 7.83084C25.9 7.50447 24.8226 7.44964 23.7853 7.67187C23.4742 7.72036 23.1564 7.64793 22.897 7.46945C22.6376 7.29097 22.4564 7.01997 22.3905 6.71208C22.3247 6.40419 22.3791 6.08277 22.5428 5.81379C22.7064 5.5448 22.9668 5.3472 23.2705 5.26416ZM24.1835 9.5327C24.8935 9.38109 25.631 9.41907 26.3217 9.64284C27.0125 9.86662 27.6321 10.2683 28.1184 10.8075C28.6047 11.3467 28.9404 12.0044 29.0919 12.7145C29.2434 13.4245 29.2053 14.162 28.9814 14.8527C28.9407 14.9876 28.8736 15.113 28.7837 15.2216C28.6939 15.3302 28.5834 15.4197 28.4585 15.4849C28.3336 15.5501 28.1969 15.5897 28.0565 15.6014C27.9161 15.6131 27.7748 15.5965 27.6408 15.5528C27.5069 15.5091 27.383 15.439 27.2766 15.3467C27.1701 15.2544 27.0831 15.1418 27.0208 15.0154C26.9585 14.8891 26.922 14.7515 26.9136 14.6109C26.9052 14.4703 26.925 14.3293 26.9718 14.1965C27.0829 13.859 27.1027 13.4982 27.0292 13.1506C26.9557 12.803 26.7915 12.4811 26.5533 12.2175C26.3142 11.9546 26.0104 11.7589 25.6721 11.6499C25.3339 11.5409 24.973 11.5224 24.6253 11.5962C24.3517 11.6548 24.066 11.6023 23.8311 11.4503C23.5961 11.2982 23.4312 11.0591 23.3726 10.7854C23.314 10.5118 23.3665 10.2261 23.5186 9.99113C23.6707 9.7562 23.9098 9.5913 24.1835 9.5327Z" fill="#D99BFF"/>
</svg>
